<?xml version="1.0" standalone="no"?>
<!DOCTYPE svg PUBLIC "-//W3C//DTD SVG 20010904//EN"
 "http://www.w3.org/TR/2001/REC-SVG-20010904/DTD/svg10.dtd">
<svg version="1.0" xmlns="http://www.w3.org/2000/svg"
 width="512.000000pt" height="512.000000pt" viewBox="0 0 512.000000 512.000000"
 preserveAspectRatio="xMidYMid meet">
<metadata>
Created by potrace 1.11, written by Peter Selinger 2001-2013
</metadata>
<g transform="translate(0.000000,512.000000) scale(0.100000,-0.100000)"
fill="#000000" stroke="none">
<path d="M2474 4161 c-182 -83 -351 -438 -468 -984 -20 -91 -36 -168 -36 -171
0 -3 266 -6 590 -6 325 0 590 3 590 6 0 3 -16 80 -36 171 -62 290 -133 512
-221 688 -105 211 -215 315 -333 315 -25 0 -63 -9 -86 -19z"/>
<path d="M1926 2723 c-16 -80 -66 -605 -66 -689 l0 -24 -790 0 c-582 0 -796
-3 -815 -12 -33 -15 -39 -42 -32 -148 7 -107 50 -242 110 -349 49 -87 182
-228 272 -288 148 -99 335 -174 544 -217 245 -51 251 -51 1421 -51 996 0 1106
2 1219 18 305 44 539 124 726 250 80 54 201 177 253 257 49 75 98 196 118 290
15 69 18 198 6 216 -22 33 -48 34 -841 34 l-791 0 0 24 c0 84 -50 609 -66 689
l-6 27 -628 0 -628 0 -6 -27z m-1048 -1035 c3 -15 -190 -276 -226 -305 -8 -7
-21 -9 -27 -5 -20 11 -235 291 -235 305 0 8 3 17 7 21 4 3 113 5 242 4 212 -3
236 -5 239 -20z m640 0 c3 -18 -209 -302 -233 -311 -19 -8 -24 -1 -143 151
-107 138 -121 160 -105 176 4 3 113 5 242 4 215 -3 236 -5 239 -20z m646 7 c3
-8 -11 -35 -31 -62 -116 -153 -196 -252 -208 -257 -18 -6 -61 45 -248 291 -5
7 -7 20 -3 28 8 22 481 23 490 0z m641 -7 c0 -28 -223 -308 -245 -308 -12 0
-55 47 -126 138 -59 75 -111 143 -117 149 -5 7 -7 20 -3 28 5 13 38 15 248 13
224 -3 243 -4 243 -20z m642 2 c2 -8 -42 -73 -98 -145 -123 -159 -138 -175
-154 -169 -12 5 -92 104 -208 257 -59 78 -61 78 217 75 205 -3 241 -5 243 -18z
m641 -1 c3 -14 -205 -294 -231 -311 -19 -12 -35 4 -146 147 -105 135 -120 162
-104 179 4 3 113 5 242 4 207 -3 236 -5 239 -19z m640 -1 c3 -15 -190 -276
-226 -305 -8 -7 -21 -9 -27 -5 -20 11 -235 291 -235 305 0 8 3 17 7 21 4 3
113 5 242 4 212 -3 236 -5 239 -20z m-1190 -249 c4 -30 -22 -46 -44 -28 -15
12 -19 41 -7 53 16 16 48 1 51 -25z m-1930 -11 c3 -24 0 -28 -23 -28 -27 0
-41 20 -31 46 10 27 51 13 54 -18z m-638 7 c19 -23 8 -50 -20 -50 -16 0 -26 6
-28 18 -4 18 14 47 28 47 4 0 13 -7 20 -15z m1285 -15 c0 -18 -6 -26 -23 -28
-24 -4 -38 18 -28 44 3 9 15 14 28 12 17 -2 23 -10 23 -28z m629 15 c9 -24 -4
-45 -29 -45 -24 0 -42 30 -30 50 10 15 52 12 59 -5z m1266 -10 c27 -33 -17
-74 -48 -43 -16 16 -15 23 4 42 19 20 28 20 44 1z"/>
</g>
</svg>
